#N canvas -98 52 1596 828 10;
#X obj 189 95 adc~ 3;
#X obj 500 107 adc~ 4;
#X obj 448 239 snapshot~;
#X obj 187 265 snapshot~;
#X obj 28 30 loadbang;
#X obj 468 56 loadbang;
#X obj 143 411 print x;
#X obj 437 409 print y;
#X obj 552 349 int;
#X obj 206 338 int;
#X obj 500 160 *~ 100;
#X floatatom 217 431 5 0 0 0 - - xCord, f 5;
#X floatatom 587 423 5 0 0 0 - - yCord, f 5;
#X floatatom 110 476 5 0 0 0 - xCord -, f 5;
#X obj 182 162 *~ 100;
#X obj 310 716 print x is;
#X obj 76 795 print x is;
#X obj 54 147 metro 10;
#X obj 381 183 metro 10;
#X floatatom 588 472 5 0 0 0 - yCord -, f 5;
#X obj 584 746 print y is;
#X obj 760 746 print y is;
#X obj 159 600 delay 250;
#X obj 553 614 delay 250;
#X obj 1003 396 Delay;
#X obj 169 729 tgl 15 0 fx2 empty empty 17 7 0 10 -262144 -1 -1 0 1
;
#X obj 32 653 tgl 15 0 fx1 empty empty 17 7 0 10 -262144 -1 -1 0 1
;
#X obj 1173 396 Fuzz;
#X obj 22 90 delay 500;
#X obj 423 94 delay 500;
#X obj 524 651 tgl 15 0 fx3 empty empty 17 7 0 10 -262144 -1 -1 0 1
;
#X obj 1110 396 Vibrato;
#X obj 650 652 tgl 15 0 fx4 empty empty 17 7 0 10 -262144 -1 -1 0 1
;
#X msg 14 603 0;
#X msg 97 672 0;
#X msg 503 604 0;
#X msg 620 603 0;
#X obj 1084 485 dac~;
#X obj 249 115 tgl 15 0 empty empty empty 17 7 0 10 -262144 -1 -1 100
100;
#X obj 220 49 loadbang;
#X obj 249 115 tgl 15 0 empty empty empty 17 7 0 10 -262144 -1 -1 0
1;
#X obj 551 100 tgl 15 0 empty empty empty 17 7 0 10 -262144 -1 -1 100
100;
#X obj 551 100 tgl 15 0 empty empty empty 17 7 0 10 -262144 -1 -1 0
1;
#X obj 545 45 loadbang;
#X obj 636 0 bng 15 250 50 0 empty fx4p empty 17 7 0 10 -262144 -1
-1;
#X text 633 76 state 3 activation;
#X text 306 73 state 3 activation;
#X obj 650 605 delay 250;
#X obj 277 204 print state 2;
#X obj 585 191 print state 2;
#N canvas 395 320 1202 599 testS3 0;
#X obj 448 239 snapshot~;
#X obj 187 265 snapshot~;
#X obj 126 408 print x;
#X obj 437 409 print y;
#X obj 552 349 int;
#X obj 206 338 int;
#X obj 54 147 metro 10;
#X obj 381 183 metro 10;
#X obj 22 90 delay 500;
#X obj 423 94 delay 500;
#X obj 249 115 tgl 15 0 empty empty empty 17 7 0 10 -262144 -1 -1 0
100;
#X obj 249 115 tgl 15 0 empty empty empty 17 7 0 10 -262144 -1 -1 0
1;
#X obj 551 100 tgl 15 0 empty empty empty 17 7 0 10 -262144 -1 -1 0
100;
#X obj 551 100 tgl 15 0 empty empty empty 17 7 0 10 -262144 -1 -1 0
1;
#X obj 609 78 bng 15 250 50 0 empty toggleS2 empty 17 7 0 10 -262144
-1 -1;
#X obj 282 93 bng 15 250 50 0 empty toggleS2 empty 17 7 0 10 -262144
-1 -1;
#X text 633 76 state 3 activation;
#X text 306 73 state 3 activation;
#X obj 182 162 *~ 0;
#X obj 500 160 *~ 0;
#X obj 460 41 bng 15 250 50 0 empty toggleS2 empty 17 7 0 10 -262144
-1 -1;
#X obj 24 57 bng 15 250 50 0 empty toggleS2 empty 17 7 0 10 -262144
-1 -1;
#X connect 0 0 4 0;
#X connect 1 0 5 0;
#X connect 4 0 3 0;
#X connect 5 0 2 0;
#X connect 6 0 1 0;
#X connect 7 0 0 0;
#X connect 8 0 6 0;
#X connect 9 0 7 0;
#X connect 10 0 18 1;
#X connect 12 0 19 1;
#X connect 18 0 1 0;
#X connect 19 0 0 0;
#X restore 963 123 pd testS3;
#X obj 1048 395 Reverb;
#X obj 67 540 moses 50;
#X obj 555 531 moses 50;
#X obj 1116 178 s bela_setDigital;
#X obj 1133 25 loadbang;
#X obj 28 396 r bela_digitalIn11;
#X obj 77 635 r bela_digitalIn11;
#X obj 430 547 r bela_digitalIn11;
#X obj 600 566 r bela_digitalIn11;
#X msg 669 33 1;
#X msg 625 31 0;
#X obj 339 5 bng 15 250 50 0 empty fx3p empty 17 7 0 10 -262144 -1
-1;
#X msg 328 34 1;
#X msg 284 32 0;
#X obj 463 627 bng 15 250 50 0 empty fx3p empty 17 7 0 10 -262144 -1
-1;
#X obj 134 660 bng 15 250 50 0 empty fx2p empty 17 7 0 10 -262144 -1
-1;
#X obj 47 579 bng 15 250 50 0 empty fx1p empty 17 7 0 10 -262144 -1
-1;
#X text 53 457 default postions: 35-37;
#X text 533 457 default postions: 35-37;
#X text 875 202 fx3;
#X text 874 277 fx4;
#X msg 43 599 1;
#X msg 140 686 1;
#X msg 490 646 1;
#X msg 622 672 1;
#X obj 603 644 bng 15 250 50 0 empty fx4p empty 17 7 0 10 -262144 -1
-1;
#X obj 801 9 r bela_digitalIn12;
#X obj 686 4 bng 15 250 50 0 empty fx3p empty 17 7 0 10 -262144 -1
-1;
#X obj 290 2 bng 15 250 50 0 empty fx4p empty 17 7 0 10 -262144 -1
-1;
#X obj 313 3 bng 15 250 50 0 empty fx2p empty 17 7 0 10 -262144 -1
-1;
#X obj 659 6 bng 15 250 50 0 empty fx2p empty 17 7 0 10 -262144 -1
-1;
#X obj 108 45 bng 15 250 50 0 empty backButton empty 17 7 0 10 -262144
-1 -1;
#X obj 443 47 bng 15 250 50 0 empty backButton empty 17 7 0 10 -262144
-1 -1;
#X obj 317 126 * 100;
#X obj 611 121 * 100;
#X obj 152 559 sel 12 13 14 15 16 17;
#X obj 648 517 sel 12 13 14 15 16 17;
#N canvas 0 102 1600 828 beladigitalsOut 0;
#X obj 71 382 s bela_digitalOut13;
#X obj 201 382 s bela_digitalOut14;
#X obj 327 382 s bela_digitalOut15;
#X obj 454 382 s bela_digitalOut16;
#X msg 454 315 0;
#X msg 327 316 0;
#X obj 327 243 loadbang;
#X obj 454 243 loadbang;
#X msg 201 316 0;
#X obj 201 243 loadbang;
#X msg 581 316 0;
#X obj 580 242 loadbang;
#X obj 125 283 bng 15 250 50 0 empty fx4p empty 17 7 0 10 -262144 -1
-1;
#X msg 71 317 0;
#X msg 161 316 1;
#X obj 71 244 loadbang;
#X obj 86 283 bng 15 250 50 0 empty fx2p empty 17 7 0 10 -262144 -1
-1;
#X obj 105 283 bng 15 250 50 0 empty fx3p empty 17 7 0 10 -262144 -1
-1;
#X obj 87 220 r bela_digitalIn12;
#X obj 215 220 r bela_digitalIn11;
#X obj 341 220 r bela_digitalIn11;
#X obj 465 220 r bela_digitalIn11;
#X obj 592 219 r bela_digitalIn11;
#X text 736 272 When digital out 14 - 17 are disabled \, the BYPASS
is enabled. If 14 is HIGH \, delay is active. 15 HIGH = Reverb active.
16 HIGH = Vibrato active. 17 HIGH = Fuzz active. 13 HIGH = state 3
is active \, LOW = state 2 is active (state 3 is deactive).;
#X obj 581 382 s bela_digitalOut19;
#X obj 266 271 tgl 15 0 empty fx1 empty 17 7 0 10 -262144 -1 -1 0 1
;
#X obj 397 273 tgl 15 0 empty fx2 empty 17 7 0 10 -262144 -1 -1 0 1
;
#X obj 525 278 tgl 15 0 empty fx3 empty 17 7 0 10 -262144 -1 -1 0 1
;
#X obj 652 270 tgl 15 0 empty fx4 empty 17 7 0 10 -262144 -1 -1 0 1
;
#X connect 4 0 3 0;
#X connect 5 0 2 0;
#X connect 6 0 5 0;
#X connect 7 0 4 0;
#X connect 8 0 1 0;
#X connect 9 0 8 0;
#X connect 10 0 24 0;
#X connect 11 0 10 0;
#X connect 12 0 14 0;
#X connect 13 0 0 0;
#X connect 14 0 0 0;
#X connect 15 0 13 0;
#X connect 16 0 14 0;
#X connect 17 0 14 0;
#X connect 18 0 13 0;
#X connect 19 0 8 0;
#X connect 20 0 5 0;
#X connect 21 0 4 0;
#X connect 22 0 10 0;
#X connect 25 0 1 0;
#X connect 26 0 2 0;
#X connect 27 0 3 0;
#X connect 28 0 24 0;
#X restore 1282 279 pd beladigitalsOut;
#N canvas 463 50 935 552 yholdPressDown 0;
#X floatatom 106 75 5 0 0 0 - yCord -, f 5;
#X obj 124 215 oneMessage;
#X obj 96 172 bng 15 250 50 0 empty empty empty 17 7 0 10 -262144 -1
-1;
#X obj 262 70 loadbang;
#X obj 264 142 bng 15 250 50 0 empty empty empty 17 7 0 10 -262144
-1 -1;
#X floatatom 392 79 5 0 0 0 - yCord -, f 5;
#X obj 290 239 bng 15 250 50 0 empty empty empty 17 7 0 10 -262144
-1 -1;
#X obj 176 319 timer;
#X obj 151 277 bng 15 250 50 0 empty empty empty 17 7 0 10 -262144
-1 -1;
#X floatatom 176 341 5 0 0 0 - - -, f 5;
#X obj 171 437 sel 1;
#X obj 28 430 bng 15 250 50 0 fx4p empty empty 17 7 0 10 -262144 -1
-1;
#X obj 68 335 delay 250;
#X obj 296 127 delay 250;
#X obj 324 214 delay 250;
#X obj 46 272 bng 15 250 50 0 empty fx1 empty 17 7 0 10 -262144 -1
-1;
#X obj 80 268 bng 15 250 50 0 empty fx3 empty 17 7 0 10 -262144 -1
-1;
#X obj 96 245 bng 15 250 50 0 empty fx4 empty 17 7 0 10 -262144 -1
-1;
#X text 51 72 yHold;
#X text 443 77 yHold;
#X obj 354 157 sel 12 13 14 15 16;
#X obj 174 396 > 3000;
#X obj 114 108 sel 30;
#X obj 75 241 bng 15 250 50 0 empty fx2 empty 17 7 0 10 -262144 -1
-1;
#X obj 38 489 print state down activated:;
#X obj 207 489 print state down not activated:;
#X connect 1 0 8 0;
#X connect 2 0 1 0;
#X connect 3 0 4 0;
#X connect 4 0 1 1;
#X connect 6 0 7 1;
#X connect 7 0 9 0;
#X connect 8 0 7 0;
#X connect 9 0 21 0;
#X connect 10 0 12 0;
#X connect 10 1 25 0;
#X connect 12 0 11 0;
#X connect 12 0 24 0;
#X connect 13 0 4 0;
#X connect 14 0 6 0;
#X connect 16 0 8 0;
#X connect 17 0 8 0;
#X connect 20 0 13 0;
#X connect 20 0 14 0;
#X connect 20 1 13 0;
#X connect 20 1 14 0;
#X connect 20 2 13 0;
#X connect 20 2 14 0;
#X connect 20 3 13 0;
#X connect 20 3 14 0;
#X connect 20 4 14 0;
#X connect 20 4 13 0;
#X connect 21 0 10 0;
#X connect 22 0 2 0;
#X connect 23 0 8 0;
#X restore 836 309 pd yholdPressDown;
#N canvas 464 224 935 581 yholdPressUp 0;
#X floatatom 106 75 5 0 0 0 - yCord -, f 5;
#X obj 124 215 oneMessage;
#X obj 96 172 bng 15 250 50 0 empty empty empty 17 7 0 10 -262144 -1
-1;
#X obj 262 70 loadbang;
#X obj 264 142 bng 15 250 50 0 empty empty empty 17 7 0 10 -262144
-1 -1;
#X floatatom 392 79 5 0 0 0 - yCord -, f 5;
#X obj 290 239 bng 15 250 50 0 empty empty empty 17 7 0 10 -262144
-1 -1;
#X obj 176 319 timer;
#X obj 151 277 bng 15 250 50 0 empty empty empty 17 7 0 10 -262144
-1 -1;
#X floatatom 176 341 5 0 0 0 - - -, f 5;
#X obj 171 437 sel 1;
#X obj 28 430 bng 15 250 50 0 fx3p empty empty 17 7 0 10 -262144 -1
-1;
#X obj 68 335 delay 250;
#X obj 296 127 delay 250;
#X obj 324 214 delay 250;
#X obj 44 282 bng 15 250 50 0 empty fx1 empty 17 7 0 10 -262144 -1
-1;
#X obj 39 257 bng 15 250 50 0 empty fx2 empty 17 7 0 10 -262144 -1
-1;
#X obj 36 206 bng 15 250 50 0 empty fx3 empty 17 7 0 10 -262144 -1
-1;
#X text 51 72 yHold;
#X text 443 77 yHold;
#X obj 354 157 moses 50;
#X obj 112 107 sel 40;
#X obj 173 397 > 3000;
#X obj 40 235 bng 15 250 50 0 empty fx4 empty 17 7 0 10 -262144 -1
-1;
#X obj 17 496 print state up activated:;
#X obj 237 491 print state down up activated:;
#X obj 338 371 dac~ 5;
#X connect 0 0 21 0;
#X connect 1 0 8 0;
#X connect 2 0 1 0;
#X connect 3 0 4 0;
#X connect 4 0 1 1;
#X connect 5 0 20 0;
#X connect 6 0 7 1;
#X connect 7 0 9 0;
#X connect 8 0 7 0;
#X connect 9 0 22 0;
#X connect 9 0 26 0;
#X connect 10 0 12 0;
#X connect 10 1 25 0;
#X connect 12 0 11 0;
#X connect 12 0 24 0;
#X connect 13 0 4 0;
#X connect 14 0 6 0;
#X connect 15 0 8 0;
#X connect 16 0 8 0;
#X connect 17 0 8 0;
#X connect 20 1 13 0;
#X connect 20 1 14 0;
#X connect 21 0 2 0;
#X connect 22 0 10 0;
#X connect 23 0 8 0;
#X restore 832 169 pd yholdPressUp;
#N canvas 347 203 935 552 xholdPressLeft 0;
#X floatatom 106 75 5 0 0 0 - xCord -, f 5;
#X obj 124 215 oneMessage;
#X obj 96 172 bng 15 250 50 0 empty empty empty 17 7 0 10 -262144 -1
-1;
#X obj 262 70 loadbang;
#X obj 264 142 bng 15 250 50 0 empty empty empty 17 7 0 10 -262144
-1 -1;
#X floatatom 392 79 5 0 0 0 - xCord -, f 5;
#X obj 290 239 bng 15 250 50 0 empty empty empty 17 7 0 10 -262144
-1 -1;
#X obj 176 319 timer;
#X obj 151 277 bng 15 250 50 0 empty empty empty 17 7 0 10 -262144
-1 -1;
#X floatatom 176 341 5 0 0 0 - - -, f 5;
#X obj 171 437 sel 1;
#X obj 28 430 bng 15 250 50 0 fx2p empty empty 17 7 0 10 -262144 -1
-1;
#X obj 68 335 delay 250;
#X obj 296 127 delay 250;
#X obj 324 214 delay 250;
#X obj 44 271 bng 15 250 50 0 empty fx4 empty 17 7 0 10 -262144 -1
-1;
#X obj 59 257 bng 15 250 50 0 empty fx3 empty 17 7 0 10 -262144 -1
-1;
#X obj 75 241 bng 15 250 50 0 empty fx2 empty 17 7 0 10 -262144 -1
-1;
#X obj 354 157 moses 50;
#X text 443 77 xHold;
#X text 51 72 xHold;
#X obj 53 489 print state left activated;
#X obj 234 485 print state left not activated;
#X obj 173 398 > 3000;
#X obj 112 107 sel 50;
#X connect 1 0 8 0;
#X connect 2 0 1 0;
#X connect 3 0 4 0;
#X connect 4 0 1 1;
#X connect 6 0 7 1;
#X connect 7 0 9 0;
#X connect 8 0 7 0;
#X connect 9 0 23 0;
#X connect 10 0 12 0;
#X connect 10 1 22 0;
#X connect 12 0 11 0;
#X connect 12 0 21 0;
#X connect 13 0 4 0;
#X connect 14 0 6 0;
#X connect 15 0 8 0;
#X connect 16 0 8 0;
#X connect 17 0 8 0;
#X connect 18 1 13 0;
#X connect 18 1 14 0;
#X connect 23 0 10 0;
#X connect 24 0 2 0;
#X restore 683 240 pd xholdPressLeft;
#N canvas 470 207 935 543 xholdPressRight 0;
#X floatatom 106 75 5 0 0 0 - xCord -, f 5;
#X obj 124 215 oneMessage;
#X obj 96 172 bng 15 250 50 0 empty empty empty 17 7 0 10 -262144 -1
-1;
#X obj 262 70 loadbang;
#X obj 264 142 bng 15 250 50 0 empty empty empty 17 7 0 10 -262144
-1 -1;
#X floatatom 392 79 5 0 0 0 - xCord -, f 5;
#X obj 290 239 bng 15 250 50 0 empty empty empty 17 7 0 10 -262144
-1 -1;
#X obj 176 319 timer;
#X obj 151 277 bng 15 250 50 0 empty empty empty 17 7 0 10 -262144
-1 -1;
#X floatatom 176 341 5 0 0 0 - - -, f 5;
#X obj 171 437 sel 1;
#X obj 28 430 bng 15 250 50 0 fx2p empty empty 17 7 0 10 -262144 -1
-1;
#X obj 68 335 delay 250;
#X obj 296 127 delay 250;
#X obj 324 214 delay 250;
#X obj 44 271 bng 15 250 50 0 empty fx4 empty 17 7 0 10 -262144 -1
-1;
#X obj 62 240 bng 15 250 50 0 empty fx3 empty 17 7 0 10 -262144 -1
-1;
#X obj 91 238 bng 15 250 50 0 empty fx2 empty 17 7 0 10 -262144 -1
-1;
#X text 442 77 xHold;
#X text 51 72 xHold;
#X obj 354 157 sel 12 13 14 15 16;
#X obj 112 107 sel 30;
#X obj 173 397 > 3000;
#X obj 53 489 print state right activated:;
#X obj 238 475 print state right not activated:;
#X connect 1 0 8 0;
#X connect 2 0 1 0;
#X connect 3 0 4 0;
#X connect 4 0 1 1;
#X connect 6 0 7 1;
#X connect 7 0 9 0;
#X connect 8 0 7 0;
#X connect 9 0 22 0;
#X connect 10 0 12 0;
#X connect 10 1 24 0;
#X connect 12 0 11 0;
#X connect 12 0 23 0;
#X connect 13 0 4 0;
#X connect 14 0 6 0;
#X connect 15 0 8 0;
#X connect 16 0 8 0;
#X connect 17 0 8 0;
#X connect 20 0 13 0;
#X connect 20 0 14 0;
#X connect 20 1 13 0;
#X connect 20 1 14 0;
#X connect 20 2 13 0;
#X connect 20 2 14 0;
#X connect 20 3 13 0;
#X connect 20 3 14 0;
#X connect 20 4 13 0;
#X connect 20 4 14 0;
#X connect 21 0 2 0;
#X connect 22 0 10 0;
#X restore 971 238 pd xholdPressRight;
#X msg 201 640 Right;
#X msg 60 724 Left;
#X msg 567 675 Up;
#X msg 689 659 Down;
#X text 798 239 fx1;
#X text 941 239 fx2;
#X msg 1123 70 in 11 \, in 12 \, out 13 \, out 14 \, out 15 \, out
16 \, out 19;
#N canvas 0 0 1600 828 new 0;
#X obj 620 126 adc~;
#X obj 616 503 outlet~;
#X floatatom 820 251 5 0 0 0 - - -, f 5;
#X floatatom 863 267 5 0 0 0 - - -, f 5;
#X floatatom 718 202 5 0 0 0 - - -, f 5;
#X floatatom 773 229 5 0 0 0 - - -, f 5;
#X text 813 225 liveneess \, 0 - 100;
#X text 866 245 crossover frequencey \, Hz.;
#X text 911 267 HF damping \, percent;
#X text 755 199 level \, db;
#X obj 630 296 rev3~ 200 90 3000 20, f 21;
#X obj 617 390 *~ 0;
#X obj 682 360 tgl 15 0 empty fx5 empty 17 7 0 10 -262144 -1 -1 0 2
;
#X obj 1220 120 tgl 15 0 empty fx5 empty 17 7 0 10 -262144 -1 -1 0
2;
#X obj 1220 176 switch~;
#X connect 0 0 10 0;
#X connect 0 1 10 0;
#X connect 2 0 10 4;
#X connect 3 0 10 5;
#X connect 4 0 10 2;
#X connect 5 0 10 3;
#X connect 10 0 11 0;
#X connect 10 1 11 0;
#X connect 11 0 1 0;
#X connect 12 0 11 1;
#X connect 13 0 14 0;
#X restore 995 655 pd new reverb;
#X obj 76 586 delay 250;
#N canvas 429 233 958 540 clean 0;
#X obj 168 61 adc~;
#X obj 236 84 tgl 15 0 empty bypass empty 17 7 0 10 -262144 -1 -1 1
2;
#X obj 167 179 outlet~;
#X obj 171 125 *~ 0;
#X obj 271 177 print bypass:;
#X obj 296 138 switch~;
#X obj 295 69 tgl 15 0 empty bypass empty 17 7 0 10 -262144 -1 -1 1
1;
#X obj 457 207 tgl 15 0 bypass empty empty 17 7 0 10 -262144 -1 -1
1 1;
#X msg 540 164 0;
#X obj 562 225 loadbang;
#X msg 501 251 1;
#X obj 328 74 r bela_digitalIn11;
#X obj 384 112 sel 1;
#X obj 364 167 print cancel;
#X msg 469 164 1;
#X obj 424 137 delay 250;
#X obj 614 90 r BypassToggleCheck;
#X obj 611 155 sel 0;
#X connect 0 0 3 0;
#X connect 0 1 3 0;
#X connect 1 0 3 1;
#X connect 1 0 4 0;
#X connect 3 0 2 0;
#X connect 6 0 5 0;
#X connect 8 0 7 0;
#X connect 9 0 10 0;
#X connect 10 0 7 0;
#X connect 11 0 12 0;
#X connect 12 0 13 0;
#X connect 12 0 15 0;
#X connect 14 0 7 0;
#X connect 15 0 14 0;
#X connect 16 0 17 0;
#X connect 17 0 10 0;
#X connect 17 1 8 0;
#X restore 1100 333 pd clean;
#X connect 0 0 14 0;
#X connect 1 0 10 0;
#X connect 2 0 8 0;
#X connect 3 0 9 0;
#X connect 4 0 28 0;
#X connect 5 0 29 0;
#X connect 8 0 12 0;
#X connect 9 0 11 0;
#X connect 10 0 2 0;
#X connect 13 0 52 0;
#X connect 13 0 86 0;
#X connect 14 0 3 0;
#X connect 17 0 3 0;
#X connect 18 0 2 0;
#X connect 19 0 53 0;
#X connect 19 0 87 0;
#X connect 22 0 93 0;
#X connect 22 0 25 0;
#X connect 23 0 95 0;
#X connect 23 0 30 0;
#X connect 24 0 37 0;
#X connect 24 0 37 1;
#X connect 27 0 37 0;
#X connect 27 0 37 1;
#X connect 28 0 17 0;
#X connect 29 0 18 0;
#X connect 31 0 37 0;
#X connect 31 0 37 1;
#X connect 33 0 26 0;
#X connect 34 0 25 0;
#X connect 35 0 30 0;
#X connect 36 0 32 0;
#X connect 38 0 48 0;
#X connect 38 0 14 1;
#X connect 39 0 38 0;
#X connect 41 0 10 1;
#X connect 41 0 49 0;
#X connect 43 0 41 0;
#X connect 44 0 61 0;
#X connect 47 0 96 0;
#X connect 47 0 32 0;
#X connect 51 0 37 0;
#X connect 51 0 37 1;
#X connect 52 1 101 0;
#X connect 53 1 23 0;
#X connect 55 0 99 0;
#X connect 56 0 33 0;
#X connect 57 0 34 0;
#X connect 58 0 35 0;
#X connect 59 0 36 0;
#X connect 60 0 41 0;
#X connect 60 0 85 0;
#X connect 61 0 41 0;
#X connect 62 0 64 0;
#X connect 63 0 38 0;
#X connect 63 0 84 0;
#X connect 64 0 38 0;
#X connect 65 0 74 0;
#X connect 66 0 73 0;
#X connect 67 0 72 0;
#X connect 72 0 26 0;
#X connect 73 0 25 0;
#X connect 74 0 30 0;
#X connect 75 0 32 0;
#X connect 76 0 75 0;
#X connect 77 0 63 0;
#X connect 77 0 60 0;
#X connect 78 0 61 0;
#X connect 79 0 64 0;
#X connect 80 0 64 0;
#X connect 81 0 61 0;
#X connect 82 0 28 0;
#X connect 83 0 29 0;
#X connect 84 0 14 1;
#X connect 85 0 10 1;
#X connect 86 0 22 0;
#X connect 86 1 22 0;
#X connect 86 2 22 0;
#X connect 86 3 22 0;
#X connect 86 4 22 0;
#X connect 86 5 22 0;
#X connect 87 0 47 0;
#X connect 87 1 47 0;
#X connect 87 2 47 0;
#X connect 87 3 47 0;
#X connect 87 4 47 0;
#X connect 87 5 47 0;
#X connect 93 0 15 0;
#X connect 94 0 16 0;
#X connect 95 0 20 0;
#X connect 96 0 21 0;
#X connect 99 0 54 0;
#X connect 101 0 94 0;
#X connect 101 0 26 0;
#X connect 102 0 37 0;
#X connect 102 0 37 1;
