#N canvas 630 220 612 499 10;
#X obj 96 130 delwrite~ delayname 500;
#X obj 97 216 delread~ delayname 150;
#X obj 195 176 *~ 0.6;
#X obj 419 239 switch~;
#X obj 94 81 adc~;
#X obj 95 320 outlet~;
#X obj 102 269 *~ 0;
#X obj 154 250 tgl 15 0 empty fx1 empty 17 7 0 10 -262144 -1 -1 0 5
;
#X obj 294 374 print delay status:;
#X obj 395 142 tgl 15 0 empty fx1 empty 17 7 0 10 -262144 -1 -1 0 1
;
#X obj 136 386 s BypassToggleCheck;
#X connect 1 0 2 0;
#X connect 1 0 6 0;
#X connect 2 0 0 0;
#X connect 4 0 0 0;
#X connect 4 1 0 0;
#X connect 6 0 5 0;
#X connect 7 0 6 1;
#X connect 7 0 8 0;
#X connect 7 0 10 0;
#X connect 9 0 3 0;
