#N canvas 611 215 894 465 10;
#X obj 108 28 adc~;
#X obj 106 138 clip~ -0.5 0.5;
#X obj 50 129 switch~;
#X obj 116 240 outlet~;
#X obj 124 200 *~ 0;
#X obj 167 172 tgl 15 0 empty fx4 empty 17 7 0 10 -262144 -1 -1 0 2
;
#X obj 63 94 tgl 15 0 empty fx4 empty 17 7 0 10 -262144 -1 -1 0 1;
#X obj 107 87 *~ 20;
#X obj 176 202 print fuzz status;
#X obj 367 260 print fuzz value y;
#X obj 238 258 print fuzz value x;
#X obj 171 296 s BypassToggleCheck;
#X connect 0 0 7 0;
#X connect 1 0 4 0;
#X connect 4 0 3 0;
#X connect 5 0 4 1;
#X connect 5 0 8 0;
#X connect 5 0 11 0;
#X connect 6 0 2 0;
#X connect 7 0 1 0;
