#N canvas 0 0 197 131 10;
#X obj 23 37 inlet;
#X obj 23 66 spigot 1;
#X obj 87 68 bng 15 250 50 0 empty empty empty 0 -6 0 10 -262144 -1
-1;
#X obj 68 46 tgl 15 0 empty empty empty 0 -6 0 10 -262144 -1 -1 0 1
;
#X msg 68 26 1;
#X obj 68 6 inlet;
#X obj 113 27 loadbang;
#X obj 23 95 outlet;
#X connect 0 0 1 0;
#X connect 1 0 2 0;
#X connect 1 0 7 0;
#X connect 2 0 3 0;
#X connect 3 0 1 1;
#X connect 4 0 3 0;
#X connect 5 0 4 0;
#X connect 6 0 4 0;
