#N canvas 74 50 1464 585 10;
#X obj 318 68 sig~;
#X floatatom 311 29 5 0 70 0 - - -, f 5;
#X obj 68 64 adc~;
#X obj 257 308 *~ 0;
#X obj 340 268 tgl 15 0 empty fx2 empty 17 7 0 10 -262144 -1 -1 0 2
;
#X obj 375 256 switch~;
#X obj 385 188 tgl 15 0 empty fx2 empty 17 7 0 10 -262144 -1 -1 0 1
;
#X obj 94 23 loadbang;
#X obj 242 232 *~ 0.82;
#X obj 261 413 outlet~;
#X obj 347 318 print reverb status:;
#X obj 341 402 s BypassToggleCheck;
#X msg 210 17 45;
#X obj 73 146 delwrite~ rev 10000;
#X obj 234 185 vd~ rev;
#X connect 0 0 14 0;
#X connect 1 0 0 0;
#X connect 2 0 13 0;
#X connect 2 1 13 0;
#X connect 3 0 9 0;
#X connect 4 0 3 1;
#X connect 4 0 10 0;
#X connect 4 0 11 0;
#X connect 6 0 5 0;
#X connect 7 0 12 0;
#X connect 8 0 3 0;
#X connect 8 0 13 0;
#X connect 12 0 1 0;
#X connect 14 0 8 0;
