#N canvas -8 -8 1600 828 10;
#X obj 133 85 adc~;
#X obj 75 359 vd~ vibrato;
#X obj 89 311 *~ 1;
#X obj 90 333 +~ 2;
#X obj 133 109 delwrite~ vibrato 50;
#X obj 90 270 osc~ 2;
#X floatatom 244 364 5 0 0 0 - - -, f 5;
#X obj 244 342 +;
#X obj 201 316 * 2;
#X obj 281 173 switch~;
#X obj 88 448 outlet~;
#X obj 97 410 *~ 0;
#X obj 140 383 tgl 15 0 empty fx3 empty 17 7 0 10 -262144 -1 -1 0 1
;
#X obj 334 115 tgl 15 0 empty fx3 empty 17 7 0 10 -262144 -1 -1 0 1
;
#X obj 234 461 print vibrato status:;
#X obj 153 499 s BypassToggleCheck;
#X obj 299 302 dac~ 3;
#X obj 301 329 dac~ 4;
#X obj 265 216 print depth;
#X obj 122 196 print speed;
#N canvas 333 118 713 525 StateTwoVibrato 0;
#X obj 360 229 adc~ 3;
#X obj 434 228 adc~ 4;
#X obj 433 260 *~ 0;
#X obj 364 259 *~ 0;
#X obj 440 320 snapshot~;
#X obj 342 319 snapshot~;
#X obj 230 167 bng 15 250 50 0 empty fx3p empty 17 7 0 10 -262144 -1
-1;
#X obj 543 168 bng 15 250 50 0 empty fx3p empty 17 7 0 10 -262144 -1
-1;
#X obj 497 243 tgl 15 0 empty empty empty 17 7 0 10 -262144 -1 -1 0
10;
#X obj 412 240 tgl 15 0 empty empty empty 17 7 0 10 -262144 -1 -1 0
10;
#X msg 475 177 1;
#X msg 436 177 0;
#X msg 382 188 1;
#X msg 326 190 0;
#X obj 308 96 r bela_digitalIn12;
#X obj 449 95 r bela_digitalIn12;
#X obj 463 463 outlet;
#N canvas 530 194 832 567 CoordinateCheckY 0;
#X obj 331 56 inlet;
#X obj 336 417 outlet;
#X obj 267 165 bng 15 250 50 0 empty empty empty 17 7 0 10 -262144
-1 -1;
#X obj 369 169 bng 15 250 50 0 empty empty empty 17 7 0 10 -262144
-1 -1;
#X obj 260 128 moses 50;
#X msg 258 218 1;
#X obj 254 283 +;
#X obj 373 279 int;
#X obj 357 322 clip 1 5;
#X msg 365 218 -1;
#X obj 347 127 sel 2 3 4 5 6 7 8 9 10 11 12 13 14 15 16 17 18 19 20
;
#X floatatom 350 377 5 0 0 0 - - -, f 5;
#X connect 0 0 4 0;
#X connect 0 0 10 0;
#X connect 2 0 5 0;
#X connect 3 0 9 0;
#X connect 4 1 2 0;
#X connect 5 0 6 0;
#X connect 6 0 7 0;
#X connect 7 0 8 0;
#X connect 8 0 11 0;
#X connect 9 0 6 0;
#X connect 10 0 3 0;
#X connect 10 1 3 0;
#X connect 10 2 3 0;
#X connect 10 3 3 0;
#X connect 10 4 3 0;
#X connect 10 5 3 0;
#X connect 10 6 3 0;
#X connect 10 7 3 0;
#X connect 10 8 3 0;
#X connect 10 9 3 0;
#X connect 10 10 3 0;
#X connect 10 11 3 0;
#X connect 10 12 3 0;
#X connect 10 13 3 0;
#X connect 10 14 3 0;
#X connect 10 15 3 0;
#X connect 10 16 3 0;
#X connect 10 17 3 0;
#X connect 10 18 3 0;
#X connect 11 0 6 1;
#X connect 11 0 1 0;
#X restore 443 395 pd CoordinateCheckY;
#N canvas 328 216 832 567 CoordinateCheckX 0;
#X obj 331 56 inlet;
#X obj 336 417 outlet;
#X obj 267 165 bng 15 250 50 0 empty empty empty 17 7 0 10 -262144
-1 -1;
#X obj 369 169 bng 15 250 50 0 empty empty empty 17 7 0 10 -262144
-1 -1;
#X obj 260 128 moses 50;
#X obj 254 283 +;
#X obj 373 279 int;
#X obj 357 322 clip 1 5;
#X msg 258 218 -1;
#X msg 365 218 1;
#X obj 347 127 sel 5 6 7 8 9 10 11 12 13 14 15 16 17 18;
#X floatatom 360 378 5 0 0 0 - - -, f 5;
#X connect 0 0 4 0;
#X connect 0 0 10 0;
#X connect 2 0 8 0;
#X connect 3 0 9 0;
#X connect 4 1 2 0;
#X connect 5 0 6 0;
#X connect 6 0 7 0;
#X connect 7 0 11 0;
#X connect 8 0 5 0;
#X connect 9 0 5 0;
#X connect 10 0 3 0;
#X connect 10 1 3 0;
#X connect 10 2 3 0;
#X connect 10 3 3 0;
#X connect 10 4 3 0;
#X connect 10 5 3 0;
#X connect 10 6 3 0;
#X connect 10 7 3 0;
#X connect 10 8 3 0;
#X connect 10 9 3 0;
#X connect 10 10 3 0;
#X connect 10 11 3 0;
#X connect 10 12 3 0;
#X connect 10 13 3 0;
#X connect 11 0 5 1;
#X connect 11 0 1 0;
#X restore 297 395 pd CoordinateCheckX;
#X obj 267 465 outlet;
#X floatatom 314 366 5 0 0 0 - - -, f 5;
#X floatatom 477 370 5 0 0 0 - - -, f 5;
#X obj 445 346 int;
#X obj 338 342 int;
#X obj 176 416 print state 3 x;
#X obj 591 403 print state 3 y;
#X obj 266 229 metro 1000;
#X obj 579 230 metro 1000;
#X obj 414 208 * 100;
#X obj 522 228 * 100;
#X connect 0 0 3 0;
#X connect 1 0 2 0;
#X connect 2 0 4 0;
#X connect 3 0 5 0;
#X connect 4 0 22 0;
#X connect 5 0 23 0;
#X connect 6 0 12 0;
#X connect 6 0 26 0;
#X connect 7 0 10 0;
#X connect 7 0 27 0;
#X connect 8 0 2 1;
#X connect 9 0 3 1;
#X connect 10 0 8 0;
#X connect 10 0 29 0;
#X connect 11 0 8 0;
#X connect 12 0 9 0;
#X connect 12 0 28 0;
#X connect 13 0 9 0;
#X connect 14 0 13 0;
#X connect 15 0 11 0;
#X connect 17 0 16 0;
#X connect 18 0 19 0;
#X connect 20 0 18 0;
#X connect 20 0 24 0;
#X connect 21 0 17 0;
#X connect 21 0 25 0;
#X connect 22 0 21 0;
#X connect 23 0 20 0;
#X connect 26 0 5 0;
#X connect 27 0 4 0;
#X connect 28 0 3 1;
#X connect 29 0 2 1;
#X restore 110 147 pd StateTwoVibrato;
#X floatatom 91 229 5 0 0 0 - - -, f 5;
#X floatatom 204 254 5 0 0 0 - - -, f 5;
#X connect 0 0 4 0;
#X connect 1 0 11 0;
#X connect 2 0 3 0;
#X connect 3 0 1 0;
#X connect 5 0 2 0;
#X connect 7 0 6 0;
#X connect 8 0 3 1;
#X connect 8 0 7 0;
#X connect 11 0 10 0;
#X connect 12 0 11 1;
#X connect 12 0 14 0;
#X connect 12 0 15 0;
#X connect 13 0 9 0;
#X connect 20 0 21 0;
#X connect 20 0 19 0;
#X connect 20 1 22 0;
#X connect 20 1 18 0;
#X connect 21 0 5 0;
#X connect 21 0 16 0;
#X connect 22 0 8 0;
#X connect 22 0 17 0;
